<svg xmlns="http://www.w3.org/2000/svg" xml:space="preserve" width="1.99999in" height="1.99999in" version="1.1" style="shape-rendering:geometricPrecision; text-rendering:geometricPrecision; image-rendering:optimizeQuality; fill-rule:evenodd; clip-rule:evenodd" viewBox="0 0 2000 2000" xmlns:xlink="http://www.w3.org/1999/xlink">
 <defs>
  <style type="text/css">
   
    .fil0 {fill:#000002}
   
  </style>
 </defs>
 <g id="Layer_x0020_1">
  <metadata id="CorelCorpID_0Corel-Layer"></metadata>
  <path class="fil0" d="M347 1521c-53,-1 -103,-29 -130,-76l-50 -86c-20,-35 -25,-75 -15,-114 11,-39 36,-72 71,-92l93 -54c171,-136 261,-309 349,-519l475 824c-90,-12 -180,-21 -268,-21 -63,0 -121,5 -176,14 12,61 -12,125 -65,161l47 81c15,26 19,57 10,86 -8,29 -26,53 -52,68 -18,10 -37,15 -57,15l0 0c-41,0 -78,-21 -98,-55l-134 -232zm1466 -545l-486 0c-22,0 -40,-18 -40,-40 0,-22 18,-40 40,-40l486 0c22,0 40,18 40,40 0,22 -18,40 -40,40zm-596 -125c-14,0 -28,-7 -35,-20 -11,-19 -5,-44 15,-55l421 -243c19,-11 43,-4 54,15 11,19 5,43 -14,54l-421 243c-7,4 -14,6 -20,6zm-54 -158c-7,0 -14,-2 -20,-6 -19,-11 -26,-35 -15,-54l243 -421c11,-20 36,-26 55,-15 19,11 26,35 15,55l-243 421c-8,13 -21,20 -35,20zm-545 721c-20,5 -40,11 -60,18l32 56c23,-18 33,-47 28,-74zm669 39c-44,0 -86,-23 -108,-61l-484 -840c-16,-28 -21,-61 -12,-93 8,-32 29,-59 57,-76 19,-10 40,-16 62,-16 44,0 85,24 107,62l485 839c16,28 21,62 12,94 -8,32 -29,58 -57,75 -19,11 -41,16 -62,16z" id="id_104" style="fill: rgb(100, 100, 100);"></path>
 </g>
</svg>