<svg xmlns="http://www.w3.org/2000/svg" xml:space="preserve" width="1.70666in" height="1.70666in" version="1.1" style="shape-rendering:geometricPrecision; text-rendering:geometricPrecision; image-rendering:optimizeQuality; fill-rule:evenodd; clip-rule:evenodd" viewBox="0 0 1707 1707" xmlns:xlink="http://www.w3.org/1999/xlink">
 <defs>
  <style type="text/css">
   
    .fil0 {fill:#000002}
   
  </style>
 </defs>
 <g id="Layer_x0020_1">
  <metadata id="CorelCorpID_0Corel-Layer"></metadata>
  <path class="fil0" d="M1468 963c-30,0 -22,-34 -22,-57 0,-207 -105,-395 -282,-504 -25,-16 -2,-55 24,-39 201,124 315,344 302,579 0,12 -10,21 -22,21zm-1074 308c-3,-30 -11,-52 -16,-58 -89,29 -120,-49 -134,-53 0,0 -1,0 -3,1 -111,63 -49,200 -32,205 8,2 13,7 16,13 17,12 37,17 57,17 22,0 43,-6 61,-17 14,-16 -2,-4 17,-13 23,-15 38,-59 34,-95zm-259 -5c-30,-53 -13,-134 22,-175 23,-28 54,-39 85,-29 65,-21 124,-11 163,28 43,42 54,111 31,181 4,56 -18,94 -37,116 -3,3 -6,6 -10,9l10 35 30 0c76,0 138,62 138,138l0 115c0,12 -10,23 -23,23l-84 0 0 -102c0,-16 -25,-16 -25,0l0 102 -302 0 0 -102c0,-16 -26,-16 -26,0l0 102 -84 0c-13,0 -23,-11 -23,-23l0 -115c0,-76 62,-138 138,-138l30 0 10 -37c-25,-27 -44,-72 -43,-128zm214 157c-41,19 -90,21 -131,0l-6 22 70 57 73 -57 -6 -22zm1184 -152c-3,-30 -11,-52 -16,-58 -89,29 -119,-49 -133,-53 0,0 -1,0 -3,1 -111,63 -50,200 -32,205 7,2 13,7 15,13 18,12 38,17 58,17 21,0 43,-6 61,-17 14,-16 -2,-4 17,-13 22,-15 37,-59 33,-95zm-259 -5c-30,-53 -13,-134 22,-175 24,-28 55,-39 86,-29 65,-21 124,-11 163,28 42,42 54,111 31,181 4,56 -18,94 -38,116 -3,3 -6,6 -9,9l9 35 31 0c76,0 138,62 138,138l0 115c0,12 -10,23 -23,23l-84 0 0 -102c0,-16 -26,-16 -26,0l0 102 -302 0 0 -102c0,-16 -25,-16 -25,0l0 102 -85 0c-12,0 -23,-11 -23,-23l0 -115c0,-76 62,-138 138,-138l31 0 10 -37c-26,-27 -45,-72 -44,-128zm215 157c-41,19 -90,21 -132,0l-6 22 71 57 73 -57 -6 -22zm-490 -1133c-4,-39 -15,-68 -22,-76 -117,38 -157,-64 -175,-70 0,0 -2,0 -4,1 -88,50 -86,140 -86,141 3,197 180,200 252,120 27,-31 39,-70 35,-116zm-342 -6c-39,-70 -17,-177 29,-231 31,-37 72,-51 113,-38 85,-28 163,-15 215,36 55,56 71,147 40,239 6,74 -23,124 -49,153 -5,6 -11,11 -17,16l16 59 48 0c99,0 179,80 179,179l0 156c0,13 -10,23 -23,23l-119 0 0 -130c0,-16 -26,-16 -26,0l0 130 -420 0 0 -130c0,-16 -25,-16 -25,0l0 130 -120 0c-12,0 -22,-10 -22,-23l0 -156c0,-99 80,-179 179,-179l48 0 16 -61c-36,-36 -64,-96 -62,-173zm291 202c-59,31 -131,34 -190,1l-12 45 106 84 108 -84 -12 -46zm-709 480c-28,0 -24,-34 -24,-57 0,-224 120,-434 312,-548 25,-16 48,23 23,39 -189,112 -300,323 -288,542 0,13 -10,24 -23,24z" id="id_101" style="fill: rgb(100, 100, 100);"></path>
 </g>
</svg>